<?xml version="1.0" encoding="utf-8"?>
<svg version="1.1" xmlns:xlink="http://www.w3.org/1999/xlink" width="77px" height="20px" xmlns="http://www.w3.org/2000/svg">
  <defs>
    <mask fill="white" id="clip34">
      <path d="M 0 15  L 0 5  C 0 2.19999999999999  2.20000000000005 0  5 0  L 51 0  L 72 0  C 74.8 0  77 2.19999999999999  77 5  L 77 15  C 77 17.8  74.8 20  72 20  L 5 20  C 2.20000000000005 20  0 17.8  0 15  Z " fill-rule="evenodd" />
    </mask>
  </defs>
  <g transform="matrix(1 0 0 1 -602 -347 )">
    <path d="M 0 15  L 0 5  C 0 2.19999999999999  2.20000000000005 0  5 0  L 51 0  L 72 0  C 74.8 0  77 2.19999999999999  77 5  L 77 15  C 77 17.8  74.8 20  72 20  L 5 20  C 2.20000000000005 20  0 17.8  0 15  Z " fill-rule="nonzero" fill="#ffffff" stroke="none" transform="matrix(1 0 0 1 602 347 )" />
    <path d="M 0 15  L 0 5  C 0 2.19999999999999  2.20000000000005 0  5 0  L 51 0  L 72 0  C 74.8 0  77 2.19999999999999  77 5  L 77 15  C 77 17.8  74.8 20  72 20  L 5 20  C 2.20000000000005 20  0 17.8  0 15  Z " stroke-width="2" stroke="#797979" fill="none" transform="matrix(1 0 0 1 602 347 )" mask="url(#clip34)" />
  </g>
</svg>